<svg width="186" height="142" viewBox="0 0 186 142" fill="none" xmlns="http://www.w3.org/2000/svg">
<g filter="url(#filter0_dd_13_62)">
<mask id="path-1-inside-1_13_62" fill="white">
<path d="M9.22919 16C9.22919 7.16344 16.3926 0 25.2292 0H160.771C169.607 0 176.771 7.16344 176.771 16V85.7639C176.771 94.6004 169.607 101.764 160.771 101.764H25.2292C16.3927 101.764 9.22919 94.6004 9.22919 85.7639V16Z"/>
</mask>
<path d="M9.22919 16C9.22919 7.16344 16.3926 0 25.2292 0H160.771C169.607 0 176.771 7.16344 176.771 16V85.7639C176.771 94.6004 169.607 101.764 160.771 101.764H25.2292C16.3927 101.764 9.22919 94.6004 9.22919 85.7639V16Z" fill="white" shape-rendering="crispEdges"/>
<path d="M25.2292 0V0.888889H160.771V0V-0.888889H25.2292V0ZM176.771 16H175.882V85.7639H176.771H177.66V16H176.771ZM160.771 101.764V100.875H25.2292V101.764V102.653H160.771V101.764ZM9.22919 85.7639H10.1181V16H9.22919H8.3403V85.7639H9.22919ZM25.2292 101.764V100.875C16.8836 100.875 10.1181 94.1095 10.1181 85.7639H9.22919H8.3403C8.3403 95.0914 15.9017 102.653 25.2292 102.653V101.764ZM176.771 85.7639H175.882C175.882 94.1095 169.117 100.875 160.771 100.875V101.764V102.653C170.098 102.653 177.66 95.0914 177.66 85.7639H176.771ZM160.771 0V0.888889C169.116 0.888889 175.882 7.65437 175.882 16H176.771H177.66C177.66 6.67252 170.098 -0.888889 160.771 -0.888889V0ZM25.2292 0V-0.888889C15.9017 -0.888889 8.3403 6.67252 8.3403 16H9.22919H10.1181C10.1181 7.65436 16.8836 0.888889 25.2292 0.888889V0Z" fill="#F3F4F6" mask="url(#path-1-inside-1_13_62)"/>
<path d="M34.118 40.882C34.118 33.15 40.3861 26.882 48.118 26.882H68.118C75.85 26.882 82.118 33.15 82.118 40.882V60.882C82.118 68.6139 75.85 74.882 68.118 74.882H48.118C40.3861 74.882 34.118 68.6139 34.118 60.882V40.882Z" fill="url(#paint0_linear_13_62)"/>
<path d="M56.118 53.542V55.168C56.1143 55.5106 56.0225 55.8465 55.8516 56.1435C55.6807 56.4405 55.4364 56.6886 55.142 56.864C54.5172 57.3268 54.0089 57.929 53.6575 58.6227C53.3062 59.3163 53.1215 60.0824 53.118 60.86" stroke="white" stroke-width="2" stroke-linecap="round" stroke-linejoin="round"/>
<path d="M60.118 53.542V55.168C60.1218 55.5106 60.2136 55.8465 60.3845 56.1435C60.5554 56.4405 60.7997 56.6886 61.094 56.864C61.7189 57.3268 62.2272 57.929 62.5786 58.6227C62.9299 59.3163 63.1146 60.0824 63.118 60.86" stroke="white" stroke-width="2" stroke-linecap="round" stroke-linejoin="round"/>
<path d="M64.118 47.882H65.618C66.2811 47.882 66.917 47.6186 67.3858 47.1497C67.8546 46.6809 68.118 46.045 68.118 45.382C68.118 44.7189 67.8546 44.083 67.3858 43.6142C66.917 43.1454 66.2811 42.882 65.618 42.882H64.118" stroke="white" stroke-width="2" stroke-linecap="round" stroke-linejoin="round"/>
<path d="M50.118 60.882H66.118" stroke="white" stroke-width="2" stroke-linecap="round" stroke-linejoin="round"/>
<path d="M52.118 47.882C52.118 49.4733 52.7502 50.9994 53.8754 52.1246C55.0006 53.2498 56.5267 53.882 58.118 53.882C59.7093 53.882 61.2355 53.2498 62.3607 52.1246C63.4859 50.9994 64.118 49.4733 64.118 47.882V41.882C64.118 41.6167 64.0127 41.3624 63.8251 41.1749C63.6376 40.9873 63.3833 40.882 63.118 40.882H53.118C52.8528 40.882 52.5985 40.9873 52.4109 41.1749C52.2234 41.3624 52.118 41.6167 52.118 41.882V47.882Z" stroke="white" stroke-width="2" stroke-linecap="round" stroke-linejoin="round"/>
<path d="M52.118 47.882H50.618C49.955 47.882 49.3191 47.6186 48.8503 47.1497C48.3814 46.6809 48.118 46.045 48.118 45.382C48.118 44.7189 48.3814 44.083 48.8503 43.6142C49.3191 43.1454 49.955 42.882 50.618 42.882H52.118" stroke="white" stroke-width="2" stroke-linecap="round" stroke-linejoin="round"/>
<path d="M95.2079 44.9163L98.3954 44.5647C98.4735 45.2131 98.6766 45.6936 99.0048 46.0061C99.3329 46.3186 99.7665 46.4749 100.306 46.4749C100.985 46.4749 101.563 46.1624 102.04 45.5374C102.516 44.9124 102.821 43.6155 102.954 41.6467C102.126 42.6077 101.091 43.0881 99.8485 43.0881C98.4969 43.0881 97.329 42.5686 96.3446 41.5295C95.368 40.4827 94.8798 39.1233 94.8798 37.4514C94.8798 35.7092 95.3954 34.3069 96.4266 33.2444C97.4657 32.1741 98.786 31.6389 100.388 31.6389C102.13 31.6389 103.559 32.3147 104.677 33.6663C105.794 35.01 106.352 37.2249 106.352 40.3108C106.352 43.4514 105.77 45.717 104.606 47.1077C103.442 48.4983 101.927 49.1936 100.059 49.1936C98.7157 49.1936 97.6298 48.8381 96.8016 48.1272C95.9735 47.4084 95.4423 46.3381 95.2079 44.9163ZM102.661 37.7209C102.661 36.6584 102.415 35.8342 101.923 35.2483C101.438 34.6624 100.876 34.3694 100.235 34.3694C99.6259 34.3694 99.118 34.6116 98.7118 35.0959C98.3134 35.5725 98.1141 36.3577 98.1141 37.4514C98.1141 38.5608 98.3329 39.3772 98.7704 39.9006C99.2079 40.4163 99.7548 40.6741 100.411 40.6741C101.044 40.6741 101.575 40.4241 102.005 39.9241C102.442 39.4241 102.661 38.6897 102.661 37.7209ZM111.321 39.6194C110.47 39.26 109.849 38.7678 109.458 38.1428C109.075 37.51 108.884 36.8186 108.884 36.0686C108.884 34.7874 109.329 33.7288 110.22 32.8928C111.118 32.0569 112.391 31.6389 114.04 31.6389C115.673 31.6389 116.938 32.0569 117.837 32.8928C118.743 33.7288 119.196 34.7874 119.196 36.0686C119.196 36.8655 118.989 37.5764 118.575 38.2014C118.161 38.8186 117.579 39.2913 116.829 39.6194C117.782 40.0022 118.505 40.5608 118.997 41.2952C119.497 42.0295 119.747 42.8772 119.747 43.8381C119.747 45.4241 119.239 46.7131 118.224 47.7053C117.216 48.6975 115.872 49.1936 114.192 49.1936C112.63 49.1936 111.329 48.7834 110.29 47.9631C109.063 46.9944 108.45 45.6663 108.45 43.9788C108.45 43.0491 108.681 42.1975 109.141 41.4241C109.602 40.6428 110.329 40.0413 111.321 39.6194ZM112.001 36.303C112.001 36.9592 112.184 37.4709 112.552 37.8381C112.927 38.2053 113.423 38.3889 114.04 38.3889C114.665 38.3889 115.165 38.2053 115.54 37.8381C115.915 37.4631 116.102 36.9475 116.102 36.2913C116.102 35.6741 115.915 35.1819 115.54 34.8147C115.173 34.4397 114.684 34.2522 114.075 34.2522C113.442 34.2522 112.938 34.4397 112.563 34.8147C112.188 35.1897 112.001 35.6858 112.001 36.303ZM111.696 43.6624C111.696 44.5686 111.927 45.2756 112.388 45.7834C112.856 46.2913 113.438 46.5452 114.134 46.5452C114.813 46.5452 115.376 46.303 115.821 45.8186C116.266 45.3264 116.489 44.6194 116.489 43.6975C116.489 42.8928 116.263 42.2483 115.809 41.7639C115.356 41.2717 114.782 41.0256 114.087 41.0256C113.282 41.0256 112.681 41.303 112.282 41.8577C111.891 42.4124 111.696 43.0139 111.696 43.6624ZM121.88 35.9514C121.88 34.4124 122.216 33.2717 122.888 32.5295C123.567 31.7874 124.485 31.4163 125.641 31.4163C126.837 31.4163 127.77 31.7874 128.442 32.5295C129.122 33.2639 129.462 34.4045 129.462 35.9514C129.462 37.4905 129.122 38.6311 128.442 39.3733C127.77 40.1155 126.856 40.4866 125.7 40.4866C124.505 40.4866 123.567 40.1194 122.888 39.385C122.216 38.6428 121.88 37.4983 121.88 35.9514ZM124.446 35.928C124.446 37.0452 124.575 37.7952 124.833 38.178C125.028 38.4592 125.298 38.5999 125.641 38.5999C125.993 38.5999 126.266 38.4592 126.462 38.178C126.712 37.7952 126.837 37.0452 126.837 35.928C126.837 34.8108 126.712 34.0647 126.462 33.6897C126.266 33.4006 125.993 33.2561 125.641 33.2561C125.298 33.2561 125.028 33.3967 124.833 33.678C124.575 34.0608 124.446 34.8108 124.446 35.928ZM128.149 49.5452H125.712L134.864 31.4163H137.231L128.149 49.5452ZM133.47 45.0334C133.47 43.4944 133.806 42.3538 134.477 41.6116C135.157 40.8694 136.083 40.4983 137.255 40.4983C138.434 40.4983 139.36 40.8694 140.032 41.6116C140.712 42.3538 141.052 43.4944 141.052 45.0334C141.052 46.5803 140.712 47.7249 140.032 48.467C139.36 49.2092 138.446 49.5803 137.29 49.5803C136.095 49.5803 135.157 49.2092 134.477 48.467C133.806 47.7249 133.47 46.5803 133.47 45.0334ZM136.036 45.0217C136.036 46.1389 136.165 46.885 136.423 47.26C136.618 47.5491 136.888 47.6936 137.231 47.6936C137.583 47.6936 137.852 47.553 138.04 47.2717C138.298 46.8889 138.427 46.1389 138.427 45.0217C138.427 43.9045 138.302 43.1545 138.052 42.7717C137.856 42.4905 137.583 42.3499 137.231 42.3499C136.88 42.3499 136.61 42.4905 136.423 42.7717C136.165 43.1545 136.036 43.9045 136.036 45.0217Z" fill="#101828"/>
<path d="M95.1981 71.8752V61.8538H98.9784C99.6438 61.8538 100.152 61.8857 100.503 61.9495C100.995 62.0315 101.407 62.1887 101.74 62.4211C102.073 62.649 102.339 62.9703 102.54 63.385C102.745 63.7997 102.848 64.2555 102.848 64.7522C102.848 65.6044 102.576 66.3267 102.034 66.9192C101.492 67.5071 100.512 67.801 99.0946 67.801H96.5243V71.8752H95.1981ZM96.5243 66.6184H99.1151C99.9719 66.6184 100.58 66.4589 100.94 66.1399C101.3 65.8209 101.48 65.372 101.48 64.7932C101.48 64.3739 101.373 64.0162 101.159 63.72C100.949 63.4192 100.671 63.2209 100.325 63.1252C100.102 63.066 99.6893 63.0364 99.0878 63.0364H96.5243V66.6184ZM109.116 70.9797C108.66 71.3671 108.221 71.6405 107.797 71.8C107.377 71.9596 106.926 72.0393 106.443 72.0393C105.646 72.0393 105.033 71.8456 104.604 71.4583C104.176 71.0663 103.962 70.5673 103.962 69.9612C103.962 69.6057 104.042 69.2821 104.201 68.9905C104.365 68.6943 104.577 68.4573 104.837 68.2795C105.101 68.1018 105.397 67.9674 105.725 67.8762C105.967 67.8124 106.332 67.7509 106.819 67.6917C107.813 67.5732 108.544 67.4319 109.014 67.2678C109.018 67.0992 109.02 66.9921 109.02 66.9465C109.02 66.4452 108.904 66.092 108.672 65.887C108.357 65.609 107.89 65.47 107.27 65.47C106.692 65.47 106.263 65.5725 105.985 65.7776C105.712 65.9781 105.509 66.3359 105.377 66.8508L104.174 66.6868C104.283 66.1718 104.463 65.7571 104.714 65.4426C104.964 65.1236 105.327 64.8798 105.801 64.7112C106.275 64.538 106.824 64.4514 107.448 64.4514C108.068 64.4514 108.571 64.5243 108.959 64.6702C109.346 64.816 109.631 65.0006 109.813 65.2239C109.996 65.4426 110.123 65.7206 110.196 66.0579C110.237 66.2675 110.258 66.6458 110.258 67.1926V68.8333C110.258 69.9771 110.283 70.7017 110.333 71.0071C110.388 71.3079 110.492 71.5972 110.647 71.8752H109.362C109.235 71.62 109.153 71.3215 109.116 70.9797ZM109.014 68.2317C108.567 68.414 107.897 68.5689 107.004 68.6965C106.498 68.7694 106.14 68.8515 105.931 68.9426C105.721 69.0338 105.559 69.1682 105.445 69.3459C105.331 69.5191 105.274 69.7128 105.274 69.927C105.274 70.2551 105.397 70.5286 105.643 70.7473C105.894 70.9661 106.259 71.0754 106.737 71.0754C107.211 71.0754 107.633 70.9729 108.002 70.7678C108.371 70.5582 108.642 70.2734 108.815 69.9133C108.947 69.6353 109.014 69.2252 109.014 68.6829V68.2317ZM111.68 69.7083L112.896 69.5168C112.965 70.0045 113.154 70.3782 113.464 70.6379C113.778 70.8977 114.216 71.0276 114.776 71.0276C115.341 71.0276 115.761 70.9137 116.034 70.6858C116.307 70.4534 116.444 70.1822 116.444 69.8723C116.444 69.5943 116.323 69.3756 116.082 69.2161C115.913 69.1067 115.494 68.9677 114.824 68.7991C113.922 68.5712 113.295 68.3752 112.944 68.2112C112.598 68.0426 112.334 67.8124 112.151 67.5208C111.974 67.2245 111.885 66.8987 111.885 66.5432C111.885 66.2196 111.958 65.9211 112.103 65.6477C112.254 65.3697 112.457 65.1396 112.712 64.9573C112.903 64.816 113.163 64.6975 113.491 64.6018C113.824 64.5015 114.179 64.4514 114.557 64.4514C115.127 64.4514 115.626 64.5334 116.055 64.6975C116.488 64.8616 116.807 65.0849 117.012 65.3674C117.217 65.6454 117.358 66.0191 117.435 66.4885L116.232 66.6526C116.178 66.2789 116.018 65.9872 115.754 65.7776C115.494 65.568 115.125 65.4631 114.646 65.4631C114.081 65.4631 113.678 65.5566 113.436 65.7434C113.195 65.9303 113.074 66.149 113.074 66.3997C113.074 66.5592 113.124 66.7027 113.224 66.8303C113.325 66.9625 113.482 67.0719 113.696 67.1584C113.819 67.204 114.182 67.3088 114.783 67.4729C115.654 67.7053 116.26 67.8967 116.601 68.0471C116.948 68.193 117.219 68.4071 117.415 68.6897C117.611 68.9722 117.709 69.3232 117.709 69.7424C117.709 70.1526 117.588 70.54 117.347 70.9045C117.11 71.2646 116.766 71.5448 116.314 71.7454C115.863 71.9413 115.353 72.0393 114.783 72.0393C113.84 72.0393 113.12 71.8433 112.623 71.4514C112.131 71.0595 111.816 70.4784 111.68 69.7083ZM118.68 69.7083L119.896 69.5168C119.965 70.0045 120.154 70.3782 120.464 70.6379C120.778 70.8977 121.216 71.0276 121.776 71.0276C122.341 71.0276 122.761 70.9137 123.034 70.6858C123.307 70.4534 123.444 70.1822 123.444 69.8723C123.444 69.5943 123.323 69.3756 123.082 69.2161C122.913 69.1067 122.494 68.9677 121.824 68.7991C120.922 68.5712 120.295 68.3752 119.944 68.2112C119.598 68.0426 119.334 67.8124 119.151 67.5208C118.974 67.2245 118.885 66.8987 118.885 66.5432C118.885 66.2196 118.958 65.9211 119.103 65.6477C119.254 65.3697 119.457 65.1396 119.712 64.9573C119.903 64.816 120.163 64.6975 120.491 64.6018C120.824 64.5015 121.179 64.4514 121.557 64.4514C122.127 64.4514 122.626 64.5334 123.055 64.6975C123.488 64.8616 123.807 65.0849 124.012 65.3674C124.217 65.6454 124.358 66.0191 124.435 66.4885L123.232 66.6526C123.178 66.2789 123.018 65.9872 122.754 65.7776C122.494 65.568 122.125 65.4631 121.646 65.4631C121.081 65.4631 120.678 65.5566 120.436 65.7434C120.195 65.9303 120.074 66.149 120.074 66.3997C120.074 66.5592 120.124 66.7027 120.224 66.8303C120.325 66.9625 120.482 67.0719 120.696 67.1584C120.819 67.204 121.182 67.3088 121.783 67.4729C122.654 67.7053 123.26 67.8967 123.601 68.0471C123.948 68.193 124.219 68.4071 124.415 68.6897C124.611 68.9722 124.709 69.3232 124.709 69.7424C124.709 70.1526 124.588 70.54 124.347 70.9045C124.11 71.2646 123.766 71.5448 123.314 71.7454C122.863 71.9413 122.353 72.0393 121.783 72.0393C120.84 72.0393 120.12 71.8433 119.623 71.4514C119.131 71.0595 118.816 70.4784 118.68 69.7083ZM130.246 71.8752V61.8538H134.689C135.583 61.8538 136.262 61.9449 136.726 62.1272C137.191 62.3049 137.563 62.6217 137.841 63.0774C138.119 63.5331 138.258 64.0367 138.258 64.5881C138.258 65.2991 138.028 65.8984 137.567 66.386C137.107 66.8736 136.396 67.1835 135.434 67.3157C135.785 67.4843 136.052 67.6506 136.234 67.8147C136.622 68.1702 136.988 68.6145 137.335 69.1477L139.078 71.8752H137.41L136.084 69.7903C135.696 69.1887 135.377 68.7284 135.127 68.4094C134.876 68.0904 134.651 67.8671 134.45 67.7395C134.254 67.6119 134.054 67.523 133.849 67.4729C133.698 67.441 133.452 67.425 133.11 67.425H131.572V71.8752H130.246ZM131.572 66.2766H134.423C135.029 66.2766 135.503 66.2151 135.845 66.092C136.186 65.9644 136.446 65.7639 136.624 65.4905C136.802 65.2125 136.891 64.9117 136.891 64.5881C136.891 64.1142 136.717 63.7245 136.371 63.4192C136.029 63.1139 135.487 62.9612 134.744 62.9612H131.572V66.2766ZM144.923 70.9797C144.467 71.3671 144.027 71.6405 143.603 71.8C143.184 71.9596 142.733 72.0393 142.25 72.0393C141.452 72.0393 140.839 71.8456 140.411 71.4583C139.983 71.0663 139.768 70.5673 139.768 69.9612C139.768 69.6057 139.848 69.2821 140.008 68.9905C140.172 68.6943 140.384 68.4573 140.643 68.2795C140.908 68.1018 141.204 67.9674 141.532 67.8762C141.774 67.8124 142.138 67.7509 142.626 67.6917C143.619 67.5732 144.351 67.4319 144.82 67.2678C144.825 67.0992 144.827 66.9921 144.827 66.9465C144.827 66.4452 144.711 66.092 144.478 65.887C144.164 65.609 143.697 65.47 143.077 65.47C142.498 65.47 142.07 65.5725 141.792 65.7776C141.518 65.9781 141.316 66.3359 141.183 66.8508L139.98 66.6868C140.09 66.1718 140.27 65.7571 140.52 65.4426C140.771 65.1236 141.133 64.8798 141.607 64.7112C142.081 64.538 142.63 64.4514 143.255 64.4514C143.875 64.4514 144.378 64.5243 144.766 64.6702C145.153 64.816 145.438 65.0006 145.62 65.2239C145.802 65.4426 145.93 65.7206 146.003 66.0579C146.044 66.2675 146.064 66.6458 146.064 67.1926V68.8333C146.064 69.9771 146.089 70.7017 146.14 71.0071C146.194 71.3079 146.299 71.5972 146.454 71.8752H145.169C145.041 71.62 144.959 71.3215 144.923 70.9797ZM144.82 68.2317C144.374 68.414 143.704 68.5689 142.81 68.6965C142.305 68.7694 141.947 68.8515 141.737 68.9426C141.528 69.0338 141.366 69.1682 141.252 69.3459C141.138 69.5191 141.081 69.7128 141.081 69.927C141.081 70.2551 141.204 70.5286 141.45 70.7473C141.701 70.9661 142.065 71.0754 142.544 71.0754C143.018 71.0754 143.439 70.9729 143.808 70.7678C144.178 70.5582 144.449 70.2734 144.622 69.9133C144.754 69.6353 144.82 69.2252 144.82 68.6829V68.2317ZM150.665 70.7747L150.843 71.8616C150.496 71.9345 150.186 71.9709 149.913 71.9709C149.466 71.9709 149.12 71.9003 148.874 71.759C148.628 71.6178 148.455 71.4332 148.354 71.2053C148.254 70.9729 148.204 70.4875 148.204 69.7493V65.5725H147.302V64.6155H148.204V62.8176L149.428 62.0793V64.6155H150.665V65.5725H149.428V69.8176C149.428 70.1685 149.448 70.3941 149.489 70.4944C149.535 70.5946 149.605 70.6744 149.701 70.7336C149.801 70.7929 149.943 70.8225 150.125 70.8225C150.262 70.8225 150.442 70.8066 150.665 70.7747ZM156.845 69.5374L158.116 69.6946C157.916 70.4374 157.544 71.0139 157.002 71.4241C156.46 71.8342 155.767 72.0393 154.924 72.0393C153.862 72.0393 153.019 71.7135 152.394 71.0618C151.775 70.4055 151.465 69.4872 151.465 68.3069C151.465 67.0855 151.779 66.1376 152.408 65.4631C153.037 64.7887 153.853 64.4514 154.855 64.4514C155.826 64.4514 156.619 64.7818 157.234 65.4426C157.849 66.1034 158.157 67.0331 158.157 68.2317C158.157 68.3046 158.155 68.414 158.15 68.5598H152.736C152.782 69.3573 153.007 69.968 153.413 70.3918C153.819 70.8157 154.324 71.0276 154.931 71.0276C155.382 71.0276 155.767 70.9091 156.086 70.6721C156.405 70.4351 156.658 70.0569 156.845 69.5374ZM152.805 67.5481H156.858C156.804 66.9374 156.649 66.4794 156.393 66.1741C156.002 65.7001 155.493 65.4631 154.869 65.4631C154.304 65.4631 153.828 65.6523 153.44 66.0305C153.057 66.4088 152.846 66.9146 152.805 67.5481Z" fill="#4A5565"/>
</g>
<defs>
<filter id="filter0_dd_13_62" x="-10.7708" y="0" width="207.542" height="141.764" filterUnits="userSpaceOnUse" color-interpolation-filters="sRGB">
<feFlood flood-opacity="0" result="BackgroundImageFix"/>
<feColorMatrix in="SourceAlpha" type="matrix" values="0 0 0 0 0 0 0 0 0 0 0 0 0 0 0 0 0 0 127 0" result="hardAlpha"/>
<feMorphology radius="6" operator="erode" in="SourceAlpha" result="effect1_dropShadow_13_62"/>
<feOffset dy="8"/>
<feGaussianBlur stdDeviation="5"/>
<feComposite in2="hardAlpha" operator="out"/>
<feColorMatrix type="matrix" values="0 0 0 0 0 0 0 0 0 0 0 0 0 0 0 0 0 0 0.1 0"/>
<feBlend mode="normal" in2="BackgroundImageFix" result="effect1_dropShadow_13_62"/>
<feColorMatrix in="SourceAlpha" type="matrix" values="0 0 0 0 0 0 0 0 0 0 0 0 0 0 0 0 0 0 127 0" result="hardAlpha"/>
<feMorphology radius="5" operator="erode" in="SourceAlpha" result="effect2_dropShadow_13_62"/>
<feOffset dy="20"/>
<feGaussianBlur stdDeviation="12.5"/>
<feComposite in2="hardAlpha" operator="out"/>
<feColorMatrix type="matrix" values="0 0 0 0 0 0 0 0 0 0 0 0 0 0 0 0 0 0 0.1 0"/>
<feBlend mode="normal" in2="effect1_dropShadow_13_62" result="effect2_dropShadow_13_62"/>
<feBlend mode="normal" in="SourceGraphic" in2="effect2_dropShadow_13_62" result="shape"/>
</filter>
<linearGradient id="paint0_linear_13_62" x1="34.118" y1="26.882" x2="82.118" y2="74.882" gradientUnits="userSpaceOnUse">
<stop stop-color="#EE0000"/>
<stop offset="1" stop-color="#E7000B"/>
</linearGradient>
</defs>
</svg>
